<?xml version="1.0" encoding="UTF-8" standalone="no"?>
<!-- Created with Inkscape (http://www.inkscape.org/) -->

<svg
   xmlns:dc="http://purl.org/dc/elements/1.1/"
   xmlns:cc="http://creativecommons.org/ns#"
   xmlns:rdf="http://www.w3.org/1999/02/22-rdf-syntax-ns#"
   xmlns:svg="http://www.w3.org/2000/svg"
   xmlns="http://www.w3.org/2000/svg"
   version="1.1"
   width="20"
   height="20"
   id="svg2993">
  <defs
     id="defs2995" />
  <metadata
     id="metadata2998">
    <rdf:RDF>
      <cc:Work
         rdf:about="">
        <dc:format>image/svg+xml</dc:format>
        <dc:type
           rdf:resource="http://purl.org/dc/dcmitype/StillImage" />
        <dc:title></dc:title>
      </cc:Work>
    </rdf:RDF>
  </metadata>
  <g
     transform="translate(0,4)"
     id="layer1">
    <rect
       width="19.941113"
       height="20.259659"
       x="0.063708894"
       y="-4.068531"
       id="rect3123"
       style="fill:#000000;fill-opacity:1;stroke:none" />
    <g
       transform="matrix(1.9891298,0,0,1.9891298,-0.03500851,-15.880189)"
       id="g3045">
      <path
         d="m 9.0549502,4.9094057 a 4.3247523,4.3247523 0 1 1 -8.64950462,0 4.3247523,4.3247523 0 1 1 8.64950462,0 z"
         transform="matrix(1.1374469,0,0,1.1374469,-0.31227957,5.4378413)"
         id="path3001"
         style="fill:#ffffff;fill-opacity:1;stroke:#000000;stroke-width:0.19956976;stroke-miterlimit:4;stroke-opacity:1;stroke-dasharray:none" />
      <path
         d="M 3.1534654,4.3237623 4.1445545,5.3599009 5.5861387,5.1797029 6.7123763,3.7381188 6.6222773,2.8821782 5.7663367,2.2965346 4.6851486,2.0712871 3.5138614,2.4767326 2.9282178,3.0173267 z"
         transform="translate(0,6)"
         id="path3781"
         style="fill:#f2ded0;fill-opacity:1;stroke:#ff0000;stroke-width:0.1;stroke-linecap:butt;stroke-linejoin:miter;stroke-miterlimit:4;stroke-opacity:1;stroke-dasharray:none" />
      <path
         d="M 6.1267327,3.1524752 5.0455446,3.6029702 5.1356436,4.6391089 5.5861387,5.810396 6.4871287,6.5311881 7.3881189,5.720297 7.4782179,4.3237623 6.6673268,2.9272277 z"
         transform="translate(0,6)"
         id="path3779"
         style="fill:#f2eb62;fill-opacity:1;stroke:#e7da00;stroke-width:0.1;stroke-linecap:butt;stroke-linejoin:miter;stroke-miterlimit:4;stroke-opacity:1;stroke-dasharray:none" />
      <path
         d="M 3.7391089,4.9094059 5.1806931,4.5490099 6.0816832,5.2698019 6.7123763,6.5311881 5.9014852,6.9816831 3.7391089,6.7564356 3.1084159,5.9455445 3.0633664,5.1346534 z"
         transform="translate(0,6)"
         id="path3777"
         style="fill:#f25462;fill-opacity:1;stroke:#e1b673;stroke-width:0.1;stroke-linecap:butt;stroke-linejoin:miter;stroke-miterlimit:4;stroke-opacity:1;stroke-dasharray:none" />
      <path
         d="m 3.4688119,2.7470296 0.7207921,0.3603961 0,1.0811881 L 4.009406,5.4049505 3.829208,5.7653465 3.1084159,5.990594 2.2074258,4.8643564 2.5227723,3.6480197 2.9282178,2.9722771 z"
         transform="translate(0,6)"
         id="path3775"
         style="fill:#03f66c;fill-opacity:1;stroke:#009a00;stroke-width:0.1;stroke-linecap:butt;stroke-linejoin:miter;stroke-miterlimit:4;stroke-opacity:1;stroke-dasharray:none" />
      <path
         d="m 2.1623763,4.7292078 c 0,0 0.9311226,1.5924287 1.6668317,1.9821783 C 4.4419078,7.0359703 5.6178732,7.1034579 6.2618813,6.8465345 6.9139942,6.5863778 7.3850521,5.8680555 7.5232674,5.1797029 7.6606901,4.4952977 7.2695053,3.7536072 6.8475248,3.1975246 6.4622933,2.6898695 5.9007173,2.2128325 5.2707922,2.1163365 4.5101517,1.9998167 3.6419932,2.2847906 3.0633663,2.7920792 2.492392,3.2926586 2.1623143,4.106354 2.1173268,4.8643564 2.0706214,5.6513022 2.4150167,6.4516627 2.8381188,7.1168317 3.2886559,7.825132 3.9064612,8.5151544 4.6851486,8.8287129 5.4514023,9.1372646 6.3707109,9.1079222 7.1628714,8.8737629 7.9616795,8.6376386 9.2351486,7.4772282 9.2351486,7.4772282"
         transform="translate(0,6)"
         id="path3773"
         style="fill:none;stroke:#000000;stroke-width:0.30000001;stroke-linecap:butt;stroke-linejoin:miter;stroke-miterlimit:4;stroke-opacity:1;stroke-dasharray:none" />
    </g>
  </g>
</svg>
